# xmcd CD database file
#
# Track frame offsets:
#	150
#	37224
#	81746
#	131289
#	172103
#	187533
#
# Disc length: 3018 seconds
#
# Revision: 0
# Processed by: cddbd v1.5.2PL0 Copyright (c) Steve Scherf et al.
# Submitted via: CDex 1.70beta2
#
DISCID=4c0bc806
DTITLE=Satoko Fujii - Fujin Raijin
DYEAR=2006
DGENRE=Jazz
TTITLE0=Itsuki no Komoriuta
TTITLE1=Champloo
TTITLE2=Shimanto
TTITLE3=Slowly and Slowly
TTITLE4=Fujin Raijin
TTITLE5=Kariboshi Kiriuta
EXTD=YEAR: 2006
EXTT0=
EXTT1=
EXTT2=
EXTT3=
EXTT4=
EXTT5=
PLAYORDER=
